<svg xmlns="http://www.w3.org/2000/svg" viewBox="0 0 60 60"><path d="M54.07 1H15.93C12.66 1 10 3.66 10 6.93V15H5.93C2.66 15 0 17.66 0 20.929V42.07C0 45.34 2.66 48 5.93 48H12v10a1 1 0 0 0 1.74.673L23.442 48H44.07c3.27 0 5.93-2.66 5.93-5.929V34h4.07c3.27 0 5.93-2.66 5.93-5.93V6.93C60 3.66 57.34 1 54.07 1zM48 42.071A3.934 3.934 0 0 1 44.07 46H23a1 1 0 0 0-.74.327L14 55.414V47a1 1 0 0 0-1-1H5.93A3.934 3.934 0 0 1 2 42.07V20.929A3.934 3.934 0 0 1 5.93 17h38.14A3.934 3.934 0 0 1 48 20.93v21.141zM58 28.07A3.934 3.934 0 0 1 54.07 32H50V20.93c0-3.27-2.66-5.93-5.93-5.93H12V6.93A3.934 3.934 0 0 1 15.93 3h38.14A3.934 3.934 0 0 1 58 6.93v21.14z"/></svg>